<svg id="FLOOR_PLAN" data-name="FLOOR PLAN" xmlns="http://www.w3.org/2000/svg" viewBox="0 0 748.44 581.92"><defs><style>.cls-1,.cls-11,.cls-2,.cls-3,.cls-7,.cls-9{fill:#231f20;}.cls-1,.cls-10{stroke:#231f20;}.cls-1,.cls-10,.cls-2{stroke-miterlimit:10;}.cls-2{stroke:#262324;}.cls-3{font-size:13.65px;}.cls-11,.cls-3,.cls-7{font-family:MyriadPro-Regular, Myriad Pro;}.cls-4{letter-spacing:-0.03em;}.cls-5{letter-spacing:0em;}.cls-6{letter-spacing:-0.01em;}.cls-7{font-size:13.65px;}.cls-8{letter-spacing:0.02em;}.cls-10{fill:none;}.cls-11{font-size:6.19px;}</style></defs><line class="cls-1" x1="0.5" y1="543.13" x2="261.88" y2="543.13"/><line class="cls-1" x1="0.5" y1="543.13" x2="0.5" y2="71.85"/><line class="cls-1" x1="303.18" y1="543.13" x2="510.82" y2="543.13"/><line class="cls-1" x1="510.82" y1="321.92" x2="510.82" y2="543.13"/><line class="cls-1" x1="453.11" y1="321.92" x2="510.82" y2="321.92"/><line class="cls-1" x1="510.82" y1="278.92" x2="488.75" y2="278.92"/><line class="cls-1" x1="488.75" y1="166.33" x2="488.75" y2="278.92"/><line class="cls-1" x1="352.97" y1="166.33" x2="488.75" y2="166.33"/><line class="cls-1" x1="352.97" y1="48.09" x2="352.97" y2="166.33"/><line class="cls-1" x1="284.51" y1="48.09" x2="352.97" y2="48.09"/><line class="cls-1" x1="0.5" y1="71.85" x2="85.36" y2="71.85"/><line class="cls-1" x1="85.36" x2="85.36" y2="71.85"/><line class="cls-1" x1="261.88" y1="543.13" x2="261.88" y2="500.7"/><line class="cls-1" x1="92.15" y1="500.7" x2="261.88" y2="500.7"/><line class="cls-1" x1="92.15" y1="489.39" x2="261.88" y2="489.39"/><line class="cls-1" x1="261.88" y1="446.95" x2="261.88" y2="489.39"/><line class="cls-1" x1="261.88" y1="294.2" x2="261.88" y2="446.95"/><line class="cls-1" x1="92.15" y1="500.7" x2="29.92" y2="500.7"/><line class="cls-1" x1="29.92" y1="450.91" x2="29.92" y2="500.7"/><line class="cls-1" x1="45.2" y1="450.91" x2="45.2" y2="489.39"/><line class="cls-1" x1="71.22" y1="489.39" x2="45.2" y2="489.39"/><line class="cls-1" x1="92.15" y1="489.39" x2="71.22" y2="489.39"/><line class="cls-1" x1="92.15" y1="500.7" x2="92.15" y2="543.13"/><line class="cls-1" x1="25.96" y1="500.7" x2="25.96" y2="543.13"/><line class="cls-1" x1="29.92" y1="450.91" x2="0.5" y2="450.91"/><line class="cls-1" x1="0.5" y1="500.7" x2="29.92" y2="500.7"/><line class="cls-1" x1="143.64" y1="446.95" x2="143.64" y2="489.39"/><line class="cls-1" x1="197.39" y1="446.95" x2="143.64" y2="446.95"/><line class="cls-1" x1="197.39" y1="489.39" x2="197.39" y2="446.95"/><line class="cls-1" x1="239.25" y1="446.95" x2="197.39" y2="446.95"/><line class="cls-1" x1="239.25" y1="489.39" x2="239.25" y2="446.95"/><line class="cls-1" x1="261.88" y1="446.95" x2="239.25" y2="446.95"/><line class="cls-1" x1="261.88" y1="489.39" x2="261.88" y2="450.91"/><line class="cls-1" x1="293.57" y1="485.43" x2="293.57" y2="475.81"/><line class="cls-1" x1="284.51" y1="475.81" x2="293.57" y2="475.81"/><line class="cls-1" x1="284.51" y1="461.66" x2="284.51" y2="475.81"/><line class="cls-1" x1="303.18" y1="461.66" x2="284.51" y2="461.66"/><line class="cls-1" x1="303.18" y1="485.43" x2="303.18" y2="461.66"/><line class="cls-1" x1="284.51" y1="446.95" x2="284.51" y2="91.65"/><line class="cls-1" x1="250.57" y1="278.92" x2="181.54" y2="278.92"/><line class="cls-1" x1="181.54" y1="183.87" x2="181.54" y2="278.92"/><line class="cls-1" x1="250.57" y1="183.87" x2="250.57" y2="278.92"/><line class="cls-1" x1="181.54" y1="183.87" x2="250.57" y2="183.87"/><line class="cls-1" x1="181.54" y1="100.14" x2="181.54" y2="183.87"/><line class="cls-1" x1="250.57" y1="100.14" x2="181.54" y2="100.14"/><line class="cls-1" x1="250.57" y1="183.87" x2="250.57" y2="100.14"/><line class="cls-1" x1="261.88" y1="294.2" x2="135.15" y2="294.2"/><line class="cls-1" x1="135.15" y1="71.85" x2="135.15" y2="294.2"/><line class="cls-1" x1="183.81" y1="71.85" x2="135.15" y2="71.85"/><line class="cls-1" x1="183.81" y1="52.05" x2="183.81" y2="71.85"/><line class="cls-1" x1="250.57" y1="52.05" x2="183.81" y2="52.05"/><line class="cls-1" x1="250.57" x2="250.57" y2="52.05"/><line class="cls-1" x1="284.51" x2="284.51" y2="238.75"/><line class="cls-1" x1="303.18" y1="543.13" x2="303.18" y2="500.7"/><line class="cls-1" x1="324.68" y1="500.7" x2="303.18" y2="500.7"/><line class="cls-1" x1="337.13" y1="506.36" x2="324.68" y2="506.36"/><line class="cls-1" x1="324.68" y1="500.7" x2="324.68" y2="506.36"/><line class="cls-1" x1="284.51" y1="446.95" x2="344.48" y2="446.95"/><line class="cls-1" x1="344.48" y1="489.39" x2="344.48" y2="446.95"/><line class="cls-2" x1="0.5" y1="581.42" x2="510.82" y2="581.42"/><g id="Layer_3" data-name="Layer 3"><text class="cls-3" transform="translate(216.06 567.26)"><tspan class="cls-4">O</tspan><tspan x="9.04" y="0">XFORD </tspan><tspan class="cls-5" x="52.21" y="0">R</tspan><tspan class="cls-6" x="59.6" y="0">O</tspan><tspan x="68.81" y="0">AD</tspan></text><text class="cls-7" transform="translate(531.23 363.67) rotate(-90)">CHESTER STRE<tspan class="cls-8" x="81.57" y="0">E</tspan><tspan x="88.51" y="0">T</tspan></text><line class="cls-2" x1="510.82" y1="581.42" x2="563.62" y2="581.42"/><line class="cls-2" x1="481.97" y1="307.49" x2="481.97" y2="321.92"/><line class="cls-2" x1="547.03" y1="307.49" x2="547.03" y2="543.13"/><line class="cls-2" x1="547.03" y1="278.92" x2="547.03"/><line class="cls-2" x1="510.82" y1="278.92" x2="510.82"/><line class="cls-2" x1="547.03" y1="274.4" x2="547.03" y2="345.31"/><line class="cls-2" x1="488.75" y1="278.92" x2="481.97" y2="278.92"/><line class="cls-2" x1="547.03" y1="543.13" x2="563.62" y2="543.13"/></g><line class="cls-2" x1="261.88" y1="543.13" x2="303.18" y2="543.13"/><line class="cls-2" x1="510.82" y1="278.92" x2="510.82" y2="345.31"/><line class="cls-2" x1="337.13" y1="506.36" x2="337.13" y2="543.13"/><line class="cls-9" x1="92.15" y1="489.39" x2="92.15" y2="446.95"/><line class="cls-9" x1="143.64" y1="446.95" x2="92.15" y2="446.95"/><line class="cls-9" x1="143.64" y1="489.39" x2="143.64" y2="450.91"/><line class="cls-9" x1="92.15" y1="489.39" x2="197.39" y2="489.39"/><line class="cls-9" x1="197.39" y1="446.95" x2="197.39" y2="489.39"/><line class="cls-9" x1="143.64" y1="446.95" x2="197.39" y2="446.95"/><line class="cls-9" x1="143.64" y1="489.39" x2="143.64" y2="446.95"/><line class="cls-9" x1="197.39" y1="446.95" x2="239.25" y2="446.95"/><line class="cls-9" x1="239.25" y1="489.39" x2="239.25" y2="446.95"/><line class="cls-9" x1="261.88" y1="446.95" x2="239.25" y2="446.95"/><line class="cls-9" x1="261.88" y1="489.39" x2="261.88" y2="446.95"/><line class="cls-9" x1="197.39" y1="489.39" x2="261.88" y2="489.39"/><line class="cls-2" x1="143.64" y1="446.95" x2="92.15" y2="446.95"/><line class="cls-2" x1="92.15" y1="489.39" x2="92.15" y2="446.95"/><line class="cls-2" x1="143.64" y1="446.95" x2="92.15" y2="446.95"/><line class="cls-2" x1="293.57" y1="484.72" x2="303.18" y2="484.72"/><line class="cls-2" x1="293.71" y1="482.17" x2="303.33" y2="482.17"/><line class="cls-2" x1="293.99" y1="479.7" x2="303.33" y2="479.7"/><line class="cls-2" x1="294.13" y1="477.15" x2="303.18" y2="477.15"/><line class="cls-2" x1="287.31" y1="475.38" x2="287.31" y2="462.09"/><line class="cls-2" x1="290.03" y1="475.07" x2="290.03" y2="462.12"/><line class="cls-2" x1="292.89" y1="475.81" x2="292.89" y2="461.95"/><line class="cls-1" x1="92.15" y1="450.91" x2="81.69" y2="450.91"/><line class="cls-1" x1="81.69" y1="413.01" x2="81.69" y2="450.91"/><line class="cls-1" x1="61.89" y1="413.01" x2="97.62" y2="413.01"/><line class="cls-1" x1="97.62" y1="317.39" x2="97.62" y2="413.01"/><line class="cls-1" x1="116.1" y1="317.39" x2="97.62" y2="317.39"/><line class="cls-1" x1="116.1" y1="297.97" x2="116.1" y2="317.39"/><line class="cls-1" x1="97.62" y1="297.97" x2="116.1" y2="297.97"/><line class="cls-1" x1="28.98" y1="353.98" x2="97.62" y2="353.79"/><line class="cls-1" x1="28.79" y1="277.79" x2="28.79" y2="353.98"/><line class="cls-1" x1="97.62" y1="277.79" x2="28.79" y2="277.79"/><line class="cls-1" x1="40.1" y1="296.84" x2="97.62" y2="296.84"/><line class="cls-1" x1="44.82" y1="277.79" x2="44.82" y2="296.84"/><line class="cls-1" x1="33.69" y1="296.84" x2="28.79" y2="296.84"/><line class="cls-1" x1="44.82" y1="296.84" x2="72.16" y2="296.84"/><line class="cls-1" x1="72.16" y1="277.79" x2="72.16" y2="296.84"/><line class="cls-1" x1="97.62" y1="277.79" x2="97.62" y2="296.84"/><line class="cls-1" x1="97.62" y1="264.02" x2="70.84" y2="264.02"/><line class="cls-1" x1="97.62" y1="268.36" x2="97.62" y2="264.02"/><line class="cls-1" x1="97.62" y1="253.09" x2="0.5" y2="253.09"/><line class="cls-1" x1="0.5" y1="392.07" x2="0.5" y2="253.09"/><line class="cls-1" x1="28.79" y1="296.84" x2="97.62" y2="296.84"/><line class="cls-1" x1="97.62" y1="278.36" x2="97.62" y2="297.97"/><line class="cls-1" x1="70.23" y1="253.09" x2="70.23" y2="277.79"/><line class="cls-1" x1="97.62" y1="253.09" x2="97.62" y2="277.79"/><line class="cls-1" x1="70.84" y1="264.02" x2="97.62" y2="264.02"/><line class="cls-1" x1="97.62" y1="396.04" x2="61.89" y2="396.04"/><line class="cls-1" x1="61.89" y1="413.01" x2="61.89" y2="396.04"/><line class="cls-1" x1="97.62" y1="373.55" x2="61.89" y2="373.55"/><line class="cls-1" x1="61.89" y1="396.04" x2="61.89" y2="373.55"/><line class="cls-1" x1="97.62" y1="353.79" x2="61.89" y2="353.79"/><line class="cls-1" x1="61.89" y1="373.55" x2="61.89" y2="353.79"/><line class="cls-1" x1="51.84" y1="353.98" x2="51.84" y2="365.2"/><line class="cls-1" x1="36.28" y1="365.2" x2="51.84" y2="365.2"/><line class="cls-1" x1="28.79" y1="374.39" x2="39.82" y2="374.39"/><line class="cls-1" x1="1.07" y1="402.82" x2="39.82" y2="402.82"/><line class="cls-1" x1="39.82" y1="374.39" x2="39.82" y2="402.82"/><line class="cls-1" x1="0.5" y1="464.4" x2="29.92" y2="464.4"/><line class="cls-1" x1="29.92" y1="488.07" x2="0.5" y2="488.07"/><line class="cls-1" x1="418.98" y1="543.13" x2="418.98" y2="500.7"/><line class="cls-1" x1="462.16" y1="500.7" x2="418.98" y2="500.7"/><line class="cls-1" x1="462.16" y1="543.13" x2="462.16" y2="500.7"/><line class="cls-1" x1="462.16" y1="523.9" x2="483.66" y2="523.9"/><line class="cls-1" x1="483.66" y1="543.13" x2="483.66" y2="523.9"/><line class="cls-1" x1="510.82" y1="523.9" x2="483.66" y2="523.9"/><line class="cls-1" x1="482.15" y1="498.44" x2="510.82" y2="498.44"/><line class="cls-1" x1="482.91" y1="479.7" x2="482.91" y2="498.44"/><line class="cls-1" x1="510.82" y1="479.98" x2="482.91" y2="479.98"/><line class="cls-1" x1="462.16" y1="489.39" x2="482.91" y2="489.39"/><line class="cls-1" x1="462.16" y1="472.22" x2="462.16" y2="489.39"/><line class="cls-1" x1="510.82" y1="479.98" x2="462.16" y2="479.98"/><line class="cls-1" x1="462.16" y1="419.99" x2="462.16" y2="479.98"/><line class="cls-1" x1="510.82" y1="419.99" x2="462.16" y2="419.99"/><line class="cls-1" x1="377.11" y1="543.13" x2="377.11" y2="510.13"/><line class="cls-1" x1="355.61" y1="510.13" x2="377.11" y2="510.13"/><line class="cls-1" x1="355.61" y1="542.38" x2="355.61" y2="510.13"/><line class="cls-1" x1="418.98" y1="500.7" x2="377.11" y2="500.7"/><line class="cls-1" x1="377.11" y1="512.96" x2="377.11" y2="500.7"/><line class="cls-1" x1="344.48" y1="446.95" x2="377.11" y2="446.95"/><line class="cls-1" x1="377.11" y1="470.72" x2="377.11" y2="446.95"/><line class="cls-1" x1="384.09" y1="470.72" x2="377.11" y2="470.72"/><line class="cls-1" x1="398.04" y1="470.72" x2="437.65" y2="470.72"/><line class="cls-1" x1="408.6" y1="459.97" x2="437.65" y2="459.97"/><line class="cls-1" x1="437.65" y1="470.72" x2="437.65" y2="459.97"/><line class="cls-1" x1="146.61" y1="281.19" x2="146.61" y2="269.3"/><line class="cls-1" x1="156.51" y1="281.19" x2="156.51" y2="261.67"/><line class="cls-1" x1="135.15" y1="261.67" x2="156.51" y2="261.67"/><line class="cls-1" x1="135.15" y1="269.3" x2="146.61" y2="269.3"/><line class="cls-1" x1="146.61" y1="261.67" x2="146.61" y2="281.19"/><line class="cls-1" x1="156.51" y1="281.19" x2="169.13" y2="281.19"/><line class="cls-1" x1="169.13" y1="275.81" x2="169.13" y2="281.19"/><line class="cls-1" x1="169.13" y1="266.19" x2="169.13" y2="278.5"/><line class="cls-1" x1="156.51" y1="266.19" x2="169.38" y2="266.19"/><line class="cls-1" x1="169.13" y1="248.51" x2="169.13" y2="266.19"/><line class="cls-1" x1="156.51" y1="248.69" x2="169.13" y2="248.69"/><line class="cls-1" x1="156.51" y1="266.19" x2="156.51" y2="248.69"/><line class="cls-1" x1="146.61" y1="280.9" x2="156.51" y2="280.9"/><line class="cls-1" x1="146.61" y1="277.79" x2="156.18" y2="277.79"/><line class="cls-1" x1="146.61" y1="274.77" x2="156.18" y2="274.77"/><line class="cls-1" x1="146.77" y1="271.9" x2="156.34" y2="271.9"/><line class="cls-1" x1="135.58" y1="266.62" x2="145.83" y2="266.62"/><line class="cls-1" x1="135.15" y1="248.69" x2="169.13" y2="248.69"/><line class="cls-1" x1="169.13" y1="156.43" x2="169.13" y2="248.51"/><line class="cls-1" x1="135.15" y1="198.16" x2="169.13" y2="198.16"/><line class="cls-1" x1="135.15" y1="156.43" x2="169.13" y2="156.43"/><line class="cls-1" x1="135.15" y1="116.41" x2="169.13" y2="116.41"/><line class="cls-1" x1="169.13" y1="160.96" x2="169.13" y2="116.41"/><line class="cls-1" x1="156.51" y1="100.14" x2="169.13" y2="100.14"/><line class="cls-1" x1="169.13" y1="116.41" x2="169.13" y2="87.69"/><line class="cls-1" x1="156.51" y1="87.69" x2="169.13" y2="87.69"/><line class="cls-1" x1="156.51" y1="116.41" x2="156.51" y2="87.69"/><line class="cls-1" x1="135.15" y1="103.91" x2="156.51" y2="103.91"/><line class="cls-1" x1="146.66" y1="84.2" x2="146.66" y2="103.91"/><line class="cls-1" x1="135.57" y1="92.94" x2="147.07" y2="92.94"/><line class="cls-1" x1="156.51" y1="90.03" x2="156.51" y2="84.2"/><line class="cls-1" x1="146.48" y1="84.95" x2="156.62" y2="84.95"/><line class="cls-1" x1="146.96" y1="88.05" x2="156.51" y2="88.05"/><line class="cls-1" x1="147.07" y1="91.05" x2="157.21" y2="91.05"/><line class="cls-1" x1="147.37" y1="96.46" x2="156.92" y2="96.46"/><line class="cls-1" x1="135.15" y1="96.46" x2="146.26" y2="96.46"/><line class="cls-1" x1="393.9" y1="450.91" x2="462.16" y2="450.91"/><line class="cls-1" x1="510.82" y1="419.99" x2="462.16" y2="419.99"/><line class="cls-1" x1="462.16" y1="479.98" x2="462.16" y2="419.99"/><line class="cls-1" x1="486.49" y1="419.99" x2="486.49" y2="400.37"/><line class="cls-1" x1="510.82" y1="400.37" x2="462.16" y2="400.37"/><line class="cls-1" x1="462.16" y1="419.99" x2="462.16" y2="400.37"/><line class="cls-1" x1="451.6" y1="400.37" x2="433.5" y2="400.37"/><line class="cls-1" x1="433.5" y1="419.99" x2="433.5" y2="400.37"/><line class="cls-1" x1="462.16" y1="419.99" x2="433.5" y2="419.99"/><line class="cls-1" x1="467.07" y1="400.37" x2="433.5" y2="400.37"/><line class="cls-1" x1="402.95" y1="400.37" x2="426.33" y2="400.37"/><line class="cls-1" x1="426.33" y1="343.42" x2="426.33" y2="400.37"/><line class="cls-1" x1="442.55" y1="361.15" x2="402.95" y2="361.15"/><line class="cls-1" x1="442.55" y1="343.42" x2="442.55" y2="361.15"/><line class="cls-1" x1="402.95" y1="378.5" x2="426.33" y2="378.5"/><line class="cls-1" x1="402.95" y1="343.42" x2="402.95" y2="400.37"/><line class="cls-1" x1="442.55" y1="343.42" x2="402.95" y2="343.42"/><line class="cls-1" x1="453.11" y1="321.92" x2="510.82" y2="321.92"/><line class="cls-1" x1="510.82" y1="347.57" x2="453.11" y2="347.57"/><line class="cls-1" x1="453.11" y1="321.92" x2="453.11" y2="347.57"/><line class="cls-1" x1="472.91" y1="321.92" x2="472.91" y2="347.57"/><line class="cls-1" x1="490.83" y1="321.92" x2="490.83" y2="347.57"/><line class="cls-1" x1="417.85" y1="307.49" x2="481.97" y2="307.49"/><line class="cls-1" x1="417.85" y1="343.42" x2="417.85" y2="307.49"/><line class="cls-1" x1="442.55" y1="343.42" x2="453.11" y2="343.42"/><line class="cls-1" x1="408.6" y1="459.97" x2="395.78" y2="459.97"/><line class="cls-1" x1="395.78" y1="449.98" x2="395.78" y2="459.97"/><line class="cls-1" x1="437.65" y1="459.97" x2="449.91" y2="459.97"/><line class="cls-1" x1="449.91" y1="450.91" x2="449.91" y2="459.97"/><line class="cls-1" x1="747.31" y1="248.51" x2="748.44" y2="248.51"/><line class="cls-1" x1="284.51" y1="272.34" x2="356.18" y2="272.34"/><line class="cls-1" x1="431.99" y1="268.36" x2="356.18" y2="268.36"/><line class="cls-1" x1="356.18" y1="272.34" x2="356.18" y2="268.36"/><line class="cls-1" x1="302.62" y1="271.43" x2="302.62" y2="257.44"/><line class="cls-1" x1="285.65" y1="257.44" x2="302.62" y2="257.44"/><line class="cls-1" x1="302.62" y1="244.13" x2="302.62" y2="260.25"/><line class="cls-1" x1="302.62" y1="231.4" x2="302.62" y2="244.13"/><line class="cls-1" x1="284.51" y1="244.13" x2="302.62" y2="244.13"/><line class="cls-1" x1="284.51" y1="231.55" x2="302.62" y2="231.55"/><line class="cls-1" x1="302.62" y1="257.44" x2="327.65" y2="257.44"/><line class="cls-1" x1="327.65" y1="272.84" x2="327.65" y2="257.44"/><line class="cls-1" x1="344.34" y1="256.57" x2="344.34" y2="271.43"/><line class="cls-1" x1="322.99" y1="257.44" x2="372.35" y2="257.44"/><line class="cls-1" x1="356.18" y1="272.34" x2="356.18" y2="257.44"/><line class="cls-1" x1="372.35" y1="268.36" x2="372.35" y2="247.8"/><line class="cls-1" x1="333.45" y1="247.8" x2="372.35" y2="247.8"/><line class="cls-1" x1="333.45" y1="256.57" x2="333.45" y2="247.8"/><line class="cls-1" x1="372.35" y1="247.8" x2="428.78" y2="247.8"/><line class="cls-1" x1="428.78" y1="256.57" x2="428.78" y2="247.8"/><line class="cls-1" x1="387.48" y1="268.36" x2="387.48" y2="247.8"/><line class="cls-1" x1="353.68" y1="191.23" x2="410.11" y2="191.23"/><line class="cls-1" x1="410.11" y1="166.33" x2="410.11" y2="191.23"/><line class="cls-1" x1="353.68" y1="166.33" x2="353.68" y2="191.23"/><line class="cls-1" x1="387.48" y1="225.36" x2="387.48" y2="247.8"/><line class="cls-1" x1="332.23" y1="225.36" x2="387.48" y2="225.36"/><line class="cls-1" x1="312.61" y1="204.81" x2="332.23" y2="225.36"/><line class="cls-1" x1="313.37" y1="170.67" x2="313.37" y2="204.81"/><line class="cls-1" x1="284.51" y1="144.27" x2="293.57" y2="144.27"/><line class="cls-1" x1="313.37" y1="161.24" x2="293.57" y2="144.27"/><line class="cls-1" x1="313.37" y1="171.8" x2="313.37" y2="161.24"/><line class="cls-1" x1="312.69" y1="155.02" x2="309.81" y2="158.19"/><line class="cls-1" x1="342.6" y1="155.02" x2="312.62" y2="154.99"/><line class="cls-1" x1="353.68" y1="157.47" x2="345.62" y2="157.47"/><line class="cls-1" x1="342.6" y1="155.02" x2="345.62" y2="157.47"/><line class="cls-1" x1="147.1" y1="93.7" x2="156.37" y2="93.7"/><line class="cls-10" x1="284.51" y1="179.76" x2="305.61" y2="179.76"/><line class="cls-10" x1="313.37" y1="172.92" x2="305.61" y2="179.76"/><line class="cls-10" x1="387.93" y1="229.4" x2="410.08" y2="229.4"/><line class="cls-10" x1="410.08" y1="247.8" x2="410.08" y2="229.4"/><line class="cls-10" x1="488.75" y1="255.92" x2="444.54" y2="255.92"/><line class="cls-10" x1="440.85" y1="252.15" x2="444.58" y2="255.88"/><line class="cls-10" x1="440.57" y1="239.45" x2="440.57" y2="252.15"/><line class="cls-10" x1="477.77" y1="239.45" x2="440.57" y2="239.45"/><line class="cls-10" x1="465.39" y1="255.92" x2="465.39" y2="239.45"/><line class="cls-10" x1="488.75" y1="239.45" x2="465.39" y2="239.45"/><line class="cls-10" x1="74.8" y1="476.77" x2="55.72" y2="476.77"/><line class="cls-10" x1="55.72" y1="459.8" x2="55.72" y2="476.77"/><line class="cls-10" x1="75.12" y1="460.24" x2="55.72" y2="460.24"/><line class="cls-10" x1="74.8" y1="476.77" x2="74.8" y2="460.24"/><line class="cls-10" x1="424.62" y1="467.76" x2="443.39" y2="467.76"/><line class="cls-10" x1="443.39" y1="485.23" x2="443.39" y2="467.76"/><line class="cls-10" x1="424.62" y1="484.99" x2="443.39" y2="484.99"/><line class="cls-10" x1="424.62" y1="467.76" x2="424.62" y2="484.99"/><line class="cls-10" x1="183.06" y1="70.27" x2="202.11" y2="70.27"/><line class="cls-10" x1="183.06" y1="87.12" x2="202.11" y2="87.12"/><line class="cls-10" x1="202.11" y1="70.27" x2="202.11" y2="87.12"/><line class="cls-10" x1="183.06" y1="87.12" x2="183.06" y2="70.27"/><text class="cls-11" transform="translate(58.74 471)">LIFT</text><text class="cls-11" transform="translate(186.14 81.38)">LIFT</text><text class="cls-11" transform="translate(428.33 478.7)">LIFT</text></svg>