<svg id="Layer_2" data-name="Layer 2" xmlns="http://www.w3.org/2000/svg" viewBox="0 0 590.9 614.8"><defs><style>.cls-1,.cls-6{fill:none;}.cls-1,.cls-7,.cls-9{stroke:#1d1d1b;stroke-miterlimit:10;}.cls-2{font-size:12px;}.cls-10,.cls-11,.cls-2,.cls-8,.cls-9{fill:#1d1d1b;}.cls-10,.cls-11,.cls-2,.cls-8{font-family:MyriadPro-Regular, Myriad Pro;}.cls-3{letter-spacing:-0.03em;}.cls-4{letter-spacing:0em;}.cls-5{letter-spacing:-0.01em;}.cls-8{font-size:7.83px;}.cls-10{font-size:7.13px;}.cls-11{font-size:6.41px;}.cls-12{letter-spacing:0.02em;}</style></defs><line class="cls-1" x1="0.5" y1="594.64" x2="554.29" y2="594.64"/><line class="cls-1" x1="0.5" y1="484.34" x2="0.5" y2="594.64"/><line class="cls-1" x1="27.31" y1="484.34" x2="0.5" y2="484.34"/><line class="cls-1" x1="27.31" y1="511.72" x2="27.31" y2="484.34"/><line class="cls-1" x1="0.5" y1="511.72" x2="27.31" y2="511.72"/><line class="cls-1" x1="27.31" y1="534.89" x2="27.31" y2="511.72"/><line class="cls-1" x1="0.5" y1="534.89" x2="27.31" y2="534.89"/><line class="cls-1" x1="27.31" y1="558.45" x2="27.31" y2="534.89"/><line class="cls-1" x1="0.5" y1="558.45" x2="27.31" y2="558.45"/><line class="cls-1" x1="19.65" y1="594.64" x2="19.65" y2="558.45"/><line class="cls-1" x1="27.31" y1="558.45" x2="97.39" y2="558.45"/><line class="cls-1" x1="97.39" y1="593.87" x2="97.39" y2="558.45"/><line class="cls-1" x1="78.82" y1="594.64" x2="78.82" y2="558.45"/><line class="cls-1" x1="58.33" y1="594.64" x2="58.33" y2="558.45"/><line class="cls-1" x1="38.99" y1="593.87" x2="38.99" y2="558.45"/><line class="cls-1" x1="164.61" y1="594.64" x2="164.61" y2="579.7"/><line class="cls-1" x1="171.69" y1="573.19" x2="164.89" y2="579.99"/><line class="cls-1" x1="189.69" y1="573.38" x2="171.69" y2="573.38"/><line class="cls-1" x1="189.69" y1="594.64" x2="189.69" y2="558.45"/><line class="cls-1" x1="160.97" y1="558.45" x2="189.69" y2="558.45"/><line class="cls-1" x1="160.97" y1="546.67" x2="160.97" y2="558.45"/><line class="cls-1" x1="142.59" y1="546.67" x2="160.97" y2="546.67"/><line class="cls-1" x1="142.59" y1="554.43" x2="142.59" y2="546.67"/><line class="cls-1" x1="128.03" y1="554.43" x2="142.59" y2="554.43"/><line class="cls-1" x1="128.03" y1="546.67" x2="128.03" y2="561.32"/><line class="cls-1" x1="97.39" y1="561.32" x2="132.63" y2="561.32"/><line class="cls-1" x1="97.39" y1="546.67" x2="128.03" y2="546.67"/><line class="cls-1" x1="112.71" y1="561.32" x2="112.71" y2="546.67"/><line class="cls-1" x1="97.39" y1="558.45" x2="97.39" y2="546.67"/><line class="cls-1" x1="189.69" y1="558.45" x2="282.18" y2="558.45"/><line class="cls-1" x1="282.18" y1="594.64" x2="282.18" y2="558.45"/><line class="cls-1" x1="263.03" y1="594.64" x2="263.03" y2="558.45"/><line class="cls-1" x1="244.27" y1="594.64" x2="244.27" y2="558.45"/><line class="cls-1" x1="224.35" y1="593.87" x2="224.35" y2="558.45"/><line class="cls-1" x1="206.93" y1="593.87" x2="206.93" y2="558.45"/><line class="cls-1" x1="282.18" y1="558.45" x2="282.18" y2="546.67"/><line class="cls-1" x1="374.48" y1="546.67" x2="282.18" y2="546.67"/><line class="cls-1" x1="374.48" y1="594.64" x2="374.48" y2="546.67"/><line class="cls-1" x1="374.48" y1="558.45" x2="388.46" y2="558.45"/><line class="cls-1" x1="374.48" y1="581.43" x2="388.46" y2="581.43"/><line class="cls-1" x1="388.46" y1="558.45" x2="388.46" y2="581.43"/><line class="cls-1" x1="433.46" y1="558.45" x2="388.46" y2="558.45"/><line class="cls-1" x1="433.46" y1="594.64" x2="433.46" y2="558.45"/><line class="cls-1" x1="457.01" y1="558.45" x2="433.46" y2="558.45"/><line class="cls-1" x1="457.01" y1="594.64" x2="457.01" y2="558.45"/><line class="cls-1" x1="448.97" y1="546.67" x2="448.97" y2="558.45"/><line class="cls-1" x1="496.27" y1="547.91" x2="448.97" y2="547.91"/><line class="cls-1" x1="496.27" y1="594.64" x2="496.27" y2="547.91"/><line class="cls-1" x1="554.29" y1="594.64" x2="554.29" y2="534.89"/><line class="cls-1" x1="510.05" y1="547.91" x2="496.27" y2="547.91"/><line class="cls-1" x1="509.29" y1="533.94" x2="509.29" y2="547.91"/><line class="cls-1" x1="550.84" y1="533.94" x2="550.84" y2="534.89"/><line class="cls-1" x1="509.29" y1="533.94" x2="550.84" y2="533.94"/><line class="cls-1" x1="554.29" y1="534.89" x2="550.84" y2="534.89"/><line class="cls-1" x1="504.5" y1="517.47" x2="504.5" y2="534.41"/><line class="cls-1" x1="509.29" y1="533.94" x2="504.5" y2="533.94"/><line class="cls-1" x1="552.56" y1="517.47" x2="504.5" y2="517.47"/><line class="cls-1" x1="554.29" y1="533.94" x2="554.29" y2="371.36"/><line class="cls-1" x1="504.5" y1="517.47" x2="504.5" y2="498.7"/><line class="cls-1" x1="554.29" y1="498.7" x2="504.5" y2="498.7"/><line class="cls-1" x1="554.29" y1="464.04" x2="504.5" y2="464.04"/><line class="cls-1" x1="504.5" y1="499.85" x2="504.5" y2="384"/><line class="cls-1" x1="554.29" y1="383.23" x2="504.5" y2="383.23"/><line class="cls-1" x1="554.29" y1="402.38" x2="504.5" y2="402.38"/><line class="cls-1" x1="554.29" y1="421.72" x2="504.5" y2="421.72"/><line class="cls-1" x1="554.29" y1="439.15" x2="504.5" y2="439.15"/><line class="cls-1" x1="554.29" y1="451.79" x2="504.5" y2="451.79"/><line class="cls-1" x1="554.29" y1="372.51" x2="554.29" y2="336.13"/><line class="cls-1" x1="530.54" y1="336.13" x2="554.29" y2="336.13"/><line class="cls-1" x1="504.5" y1="383.23" x2="504.5" y2="359.87"/><line class="cls-1" x1="554.29" y1="359.87" x2="504.5" y2="359.87"/><line class="cls-1" x1="504.5" y1="347.04" x2="504.5" y2="359.87"/><line class="cls-1" x1="519.44" y1="347.04" x2="504.5" y2="347.04"/><line class="cls-1" x1="519.44" y1="336.13" x2="519.44" y2="347.04"/><line class="cls-1" x1="532.27" y1="336.13" x2="519.44" y2="336.13"/><line class="cls-1" x1="527.1" y1="325.4" x2="523.65" y2="325.4"/><line class="cls-1" x1="481.14" y1="326.94" x2="523.65" y2="326.94"/><line class="cls-1" x1="524.13" y1="325.4" x2="524.13" y2="326.94"/><line class="cls-1" x1="504.5" y1="347.04" x2="481.14" y2="347.04"/><line class="cls-1" x1="481.14" y1="326.94" x2="481.14" y2="347.04"/><line class="cls-1" x1="527.1" y1="336.13" x2="527.1" y2="255.77"/><line class="cls-1" x1="481.14" y1="255.77" x2="527.1" y2="255.77"/><line class="cls-1" x1="481.14" y1="330.38" x2="481.14" y2="255.77"/><line class="cls-1" x1="527.1" y1="301.79" x2="481.14" y2="301.79"/><line class="cls-1" x1="481.14" y1="255.77" x2="481.14" y2="147.57"/><line class="cls-1" x1="527.1" y1="147.57" x2="527.1" y2="255.77"/><line class="cls-1" x1="481.14" y1="245.87" x2="504.5" y2="245.87"/><line class="cls-1" x1="504.12" y1="147.57" x2="504.12" y2="245.87"/><line class="cls-1" x1="527.1" y1="222.13" x2="504.12" y2="222.13"/><line class="cls-1" x1="527.1" y1="186.38" x2="504.12" y2="186.38"/><line class="cls-1" x1="481.14" y1="202.98" x2="504.12" y2="202.98"/><line class="cls-1" x1="481.14" y1="175.4" x2="447.31" y2="175.4"/><line class="cls-1" x1="447.31" y1="147.57" x2="447.31" y2="175.4"/><line class="cls-1" x1="27.31" y1="488.17" x2="50.29" y2="488.17"/><line class="cls-1" x1="50.29" y1="484.34" x2="50.29" y2="488.17"/><line class="cls-1" x1="96.63" y1="484.34" x2="50.29" y2="484.34"/><line class="cls-1" x1="97.39" y1="534.89" x2="97.39" y2="484.34"/><line class="cls-1" x1="73.46" y1="534.32" x2="97.39" y2="534.32"/><line class="cls-1" x1="73.46" y1="499.28" x2="73.46" y2="534.32"/><line class="cls-1" x1="59.29" y1="499.28" x2="73.46" y2="499.28"/><line class="cls-1" x1="59.29" y1="526.28" x2="59.29" y2="499.28"/><line class="cls-1" x1="73.46" y1="526.28" x2="59.29" y2="526.28"/><line class="cls-1" x1="59.29" y1="534.89" x2="59.29" y2="526.28"/><line class="cls-1" x1="75.37" y1="534.32" x2="59.29" y2="534.32"/><line class="cls-1" x1="59.29" y1="548.3" x2="59.29" y2="534.32"/><line class="cls-1" x1="27.31" y1="548.3" x2="59.29" y2="548.3"/><line class="cls-1" x1="97.39" y1="534.32" x2="131.29" y2="534.32"/><line class="cls-1" x1="96.63" y1="484.34" x2="227.99" y2="484.34"/><line class="cls-1" x1="131.29" y1="534.89" x2="131.29" y2="484.34"/><line class="cls-1" x1="151.78" y1="533.36" x2="131.29" y2="533.36"/><line class="cls-1" x1="151.01" y1="484.34" x2="151.01" y2="533.36"/><line class="cls-1" x1="227.99" y1="533.36" x2="151.01" y2="533.36"/><line class="cls-1" x1="227.99" y1="484.34" x2="227.99" y2="533.36"/><line class="cls-1" x1="282.18" y1="533.36" x2="227.99" y2="533.36"/><line class="cls-1" x1="227.99" y1="484.34" x2="282.18" y2="484.34"/><line class="cls-1" x1="282.18" y1="533.36" x2="282.18" y2="484.34"/><line class="cls-1" x1="282.18" y1="533.36" x2="282.18" y2="295.95"/><line class="cls-1" x1="142.59" y1="295.95" x2="282.18" y2="295.95"/><line class="cls-1" x1="142.59" y1="27.57" x2="142.59" y2="295.95"/><line class="cls-1" x1="215.73" y1="27.57" x2="142.59" y2="27.57"/><line class="cls-1" x1="215.73" y1="44.94" x2="215.73" y2="27.57"/><line class="cls-1" x1="266.29" y1="44.94" x2="215.73" y2="44.94"/><line class="cls-1" x1="266.29" y1="54.13" x2="266.29" y2="44.94"/><line class="cls-1" x1="292.33" y1="54.13" x2="266.29" y2="54.13"/><line class="cls-1" x1="292.33" x2="292.33" y2="54.13"/><line class="cls-1" x1="308.61" y1="484.34" x2="308.61"/><line class="cls-1" x1="308.61" y1="272.68" x2="386.8" y2="272.68"/><line class="cls-1" x1="386.8" y1="195.83" x2="386.8" y2="272.68"/><line class="cls-1" x1="308.61" y1="195.83" x2="386.8" y2="195.83"/><line class="cls-1" x1="386.8" y1="215.23" x2="308.61" y2="215.23"/><line class="cls-1" x1="328.59" y1="196.72" x2="328.59" y2="215.23"/><line class="cls-1" x1="359.99" y1="195.83" x2="359.99" y2="215.23"/><line class="cls-1" x1="386.8" y1="244.09" x2="359.99" y2="244.09"/><line class="cls-1" x1="359.99" y1="272.68" x2="359.99" y2="244.09"/><line class="cls-1" x1="386.8" y1="195.83" x2="419.73" y2="195.83"/><line class="cls-1" x1="386.8" y1="268.34" x2="419.73" y2="268.34"/><line class="cls-1" x1="419.73" y1="195.83" x2="419.73" y2="268.34"/><line class="cls-1" x1="419.73" y1="242.17" x2="455.22" y2="242.17"/><line class="cls-1" x1="465.95" y1="268.34" x2="419.73" y2="268.34"/><line class="cls-1" x1="466.97" y1="359.87" x2="466.97" y2="268.34"/><line class="cls-1" x1="490.71" y1="359.87" x2="466.97" y2="359.87"/><line class="cls-1" x1="491.73" y1="384" x2="491.73" y2="359.87"/><line class="cls-1" x1="478.84" y1="384" x2="491.73" y2="384"/><line class="cls-1" x1="478.84" y1="464.04" x2="478.84" y2="384"/><line class="cls-1" x1="490.71" y1="464.04" x2="478.84" y2="464.04"/><line class="cls-1" x1="490.71" y1="486.38" x2="490.71" y2="464.04"/><line class="cls-1" x1="444.76" y1="486.38" x2="490.71" y2="486.38"/><line class="cls-1" x1="444.76" y1="268.34" x2="444.76" y2="486.38"/><line class="cls-1" x1="444.76" y1="291.06" x2="466.97" y2="291.06"/><line class="cls-1" x1="466.97" y1="314.11" x2="444.76" y2="314.11"/><line class="cls-1" x1="467.73" y1="336.99" x2="444.76" y2="336.99"/><line class="cls-1" x1="466.97" y1="359.87" x2="444.76" y2="359.87"/><line class="cls-1" x1="491.73" y1="375.57" x2="444.76" y2="375.57"/><line class="cls-1" x1="478.84" y1="391.15" x2="444.76" y2="391.15"/><line class="cls-1" x1="478.84" y1="406.47" x2="444.76" y2="406.47"/><line class="cls-1" x1="478.84" y1="421.72" x2="444.76" y2="421.72"/><line class="cls-1" x1="444.76" y1="437.62" x2="478.84" y2="437.62"/><line class="cls-1" x1="478.84" y1="451.79" x2="444.76" y2="451.79"/><line class="cls-1" x1="444.76" y1="468" x2="478.84" y2="468"/><line class="cls-1" x1="478.84" y1="460.34" x2="478.84" y2="468"/><line class="cls-1" x1="318.88" y1="533.36" x2="318.88" y2="508.85"/><line class="cls-1" x1="318.88" y1="528" x2="330.12" y2="528"/><line class="cls-1" x1="308.61" y1="498.7" x2="330.12" y2="498.7"/><line class="cls-1" x1="308.61" y1="533.36" x2="308.61" y2="498.7"/><line class="cls-1" x1="330.12" y1="528" x2="330.12" y2="498.7"/><line class="cls-1" x1="308.61" y1="533.36" x2="374.48" y2="533.36"/><line class="cls-1" x1="445.23" y1="533.36" x2="366.88" y2="533.36"/><line class="cls-1" x1="444.76" y1="486.38" x2="444.76" y2="533.36"/><line class="cls-1" x1="374.48" y1="533.36" x2="374.48" y2="484.34"/><line class="cls-1" x1="445.23" y1="484.34" x2="308.61" y2="484.34"/><line class="cls-1" x1="374.48" y1="517.47" x2="409.52" y2="517.47"/><line class="cls-1" x1="409.52" y1="484.34" x2="409.52" y2="517.47"/><line class="cls-1" x1="401.1" y1="517.47" x2="401.1" y2="533.36"/><line class="cls-1" x1="308.61" y1="177.7" x2="386.8" y2="177.7"/><line class="cls-1" x1="386.8" y1="195.83" x2="386.8" y2="177.7"/><line class="cls-1" x1="447.31" y1="175.4" x2="386.8" y2="175.4"/><line class="cls-1" x1="386.8" y1="181.53" x2="386.8" y2="147.57"/><line class="cls-1" x1="481.14" y1="147.57" x2="386.8" y2="147.57"/><line class="cls-1" x1="527.1" y1="147.57" x2="481.14" y2="147.57"/><line class="cls-1" x1="308.61" y1="156.89" x2="333.88" y2="156.89"/><line class="cls-1" x1="341.16" y1="156.89" x2="386.8" y2="156.89"/><line class="cls-1" x1="349.59" y1="177.7" x2="349.59" y2="156.89"/><line class="cls-1" x1="350.73" y1="137.17" x2="350.73" y2="156.89"/><line class="cls-1" x1="386.8" y1="137.17" x2="350.73" y2="137.17"/><line class="cls-1" x1="386.8" y1="79.72" x2="308.61" y2="79.72"/><line class="cls-1" x1="386.8" y1="60" x2="349.59" y2="60"/><line class="cls-1" x1="349.59" y1="79.72" x2="349.59" y2="2.17"/><line class="cls-1" x1="308.61" y1="2.17" x2="386.8" y2="2.17"/><line class="cls-1" x1="349.59" y1="38.17" x2="386.8" y2="38.17"/><line class="cls-1" x1="386.8" y1="79.72" x2="386.8" y2="2.17"/><line class="cls-1" x1="386.8" y1="149.23" x2="386.8" y2="71.68"/><line class="cls-1" x1="142.59" y1="242.17" x2="169.65" y2="242.17"/><line class="cls-1" x1="169.65" y1="284.3" x2="169.65" y2="242.17"/><line class="cls-1" x1="169.65" y1="278.81" x2="183.56" y2="278.81"/><line class="cls-1" x1="183.56" y1="284.3" x2="169.65" y2="284.3"/><line class="cls-1" x1="183.56" y1="274.47" x2="183.56" y2="284.3"/><line class="cls-1" x1="183.56" y1="254.55" x2="183.56" y2="274.47"/><line class="cls-1" x1="169.65" y1="262.6" x2="184.33" y2="262.6"/><line class="cls-1" x1="183.56" y1="240.38" x2="183.56" y2="257.23"/><line class="cls-1" x1="166.84" y1="242.17" x2="183.56" y2="242.17"/><line class="cls-1" x1="142.59" y1="120" x2="183.56" y2="120"/><line class="cls-1" x1="183.56" y1="240.38" x2="183.56" y2="120"/><line class="cls-1" x1="142.59" y1="83.49" x2="183.56" y2="83.49"/><line class="cls-1" x1="183.56" y1="121.79" x2="183.56" y2="40.95"/><line class="cls-1" x1="169.65" y1="83.49" x2="169.65" y2="40.95"/><line class="cls-1" x1="169.65" y1="64.34" x2="183.56" y2="64.34"/><line class="cls-1" x1="183.56" y1="48" x2="169.65" y2="48"/><line class="cls-1" x1="196.07" y1="275.74" x2="271.14" y2="275.74"/><line class="cls-1" x1="271.14" y1="163.15" x2="271.14" y2="275.74"/><line class="cls-1" x1="196.07" y1="163.15" x2="271.14" y2="163.15"/><line class="cls-1" x1="196.07" y1="275.74" x2="196.07" y2="163.15"/><line class="cls-1" x1="196.07" y1="64.34" x2="273.44" y2="64.34"/><line class="cls-1" x1="271.14" y1="161.49" x2="196.07" y2="161.49"/><line class="cls-1" x1="196.07" y1="64.34" x2="196.07" y2="161.49"/><line class="cls-1" x1="273.44" y1="64.34" x2="273.44" y2="161.49"/><line class="cls-1" x1="267.56" y1="161.49" x2="273.44" y2="161.49"/><line class="cls-1" x1="196.07" y1="105.7" x2="273.44" y2="105.7"/><line class="cls-1" x1="0.5" y1="614.3" x2="554.29" y2="614.3"/><text class="cls-2" transform="translate(255.09 608.25)"><tspan class="cls-3">O</tspan><tspan x="7.94" y="0">XFORD </tspan><tspan class="cls-4" x="45.9" y="0">R</tspan><tspan class="cls-5" x="52.39" y="0">O</tspan><tspan x="60.49" y="0">AD</tspan></text><line class="cls-6" x1="216.6" y1="44.94" x2="200.13" y2="44.94"/><line class="cls-7" x1="200.13" y1="27.57" x2="200.13" y2="44.94"/><line class="cls-7" x1="216.6" y1="44.94" x2="200.13" y2="44.94"/><text class="cls-8" transform="translate(201.66 39.18)">LIFT</text><line class="cls-9" x1="59.29" y1="515.81" x2="73.46" y2="515.81"/><text x="-4.37" y="-116.04"/><line class="cls-1" x1="465.5" y1="508.98" x2="481.27" y2="508.98"/><line class="cls-1" x1="465.5" y1="524.55" x2="481.27" y2="524.55"/><line class="cls-1" x1="481.27" y1="508.98" x2="481.27" y2="524.55"/><line class="cls-1" x1="465.5" y1="524.55" x2="465.5" y2="509.28"/><text class="cls-10" transform="translate(467.73 518.94)">LIFT</text><text class="cls-11" transform="translate(61.25 509.62)">LIFT</text><line class="cls-6" x1="169.65" y1="67.09" x2="143.68" y2="67.09"/><line class="cls-1" x1="157.59" y1="46.53" x2="157.59" y2="67.09"/><line class="cls-1" x1="143.68" y1="67.09" x2="169.65" y2="67.09"/><line class="cls-1" x1="157.59" y1="63.77" x2="169.65" y2="63.77"/><line class="cls-1" x1="157.59" y1="61.13" x2="169.65" y2="61.13"/><line class="cls-1" x1="157.77" y1="58.4" x2="169.82" y2="58.4"/><line class="cls-1" x1="157.77" y1="55.58" x2="169.82" y2="55.58"/><line class="cls-1" x1="157.88" y1="52.76" x2="169.36" y2="52.76"/><line class="cls-1" x1="157.88" y1="50.22" x2="169.36" y2="50.22"/><line class="cls-1" x1="143.68" y1="62.22" x2="157.59" y2="62.22"/><line class="cls-1" x1="144.2" y1="59.77" x2="158.12" y2="59.77"/><line class="cls-1" x1="143.44" y1="64.65" x2="157.35" y2="64.65"/><line class="cls-1" x1="157.59" y1="57.26" x2="143.68" y2="57.26"/><line class="cls-1" x1="158.12" y1="54.57" x2="144.2" y2="54.57"/><line class="cls-1" x1="143.68" y1="52.02" x2="157.77" y2="52.02"/><line class="cls-1" x1="144.11" y1="49.88" x2="158.2" y2="49.88"/><line class="cls-1" x1="156.66" y1="48" x2="143.68" y2="48"/><line class="cls-1" x1="143.68" y1="67.09" x2="143.68" y2="48"/><line class="cls-1" x1="157.77" y1="48" x2="143.68" y2="48"/><line class="cls-1" x1="319.36" y1="525.11" x2="330.12" y2="525.11"/><line class="cls-1" x1="318.88" y1="522.43" x2="329.92" y2="522.43"/><line class="cls-1" x1="330.12" y1="519.85" x2="318.62" y2="519.85"/><line class="cls-1" x1="318.88" y1="516.88" x2="329.92" y2="516.88"/><line class="cls-1" x1="329.92" y1="514.1" x2="318.88" y2="514.1"/><line class="cls-1" x1="318.88" y1="511.32" x2="329.92" y2="511.32"/><line class="cls-1" x1="318.62" y1="529.85" x2="308.61" y2="529.85"/><line class="cls-1" x1="308.61" y1="527.07" x2="318.88" y2="527.07"/><line class="cls-1" x1="318.88" y1="524.35" x2="308.61" y2="524.35"/><line class="cls-1" x1="308.61" y1="521.76" x2="318.88" y2="521.76"/><line class="cls-1" x1="318.62" y1="518.94" x2="308.61" y2="518.94"/><line class="cls-1" x1="308.61" y1="516.03" x2="318.62" y2="516.03"/><line class="cls-1" x1="318.88" y1="513.19" x2="308.61" y2="513.19"/><line class="cls-1" x1="308.61" y1="510.46" x2="318.88" y2="510.46"/><line class="cls-1" x1="554.29" y1="614.3" x2="590.9" y2="614.3"/><line class="cls-1" x1="576.42" y1="594.64" x2="576.42"/><line class="cls-1" x1="554.29" y1="353.46" x2="554.29"/><text class="cls-2" transform="translate(568.87 296.44) rotate(-90)">CHESTER STRE<tspan class="cls-12" x="71.71" y="0">E</tspan><tspan x="77.81" y="0">T</tspan></text></svg>