<svg id="Layer_2" data-name="Layer 2" xmlns="http://www.w3.org/2000/svg" viewBox="0 0 569.8 631.14"><defs><style>.cls-1,.cls-6{fill:none;}.cls-1,.cls-3{stroke:#1d1d1b;stroke-miterlimit:10;}.cls-2{font-size:7.3px;}.cls-2,.cls-3,.cls-4,.cls-5,.cls-7{fill:#1d1d1b;}.cls-2,.cls-4,.cls-5,.cls-7{font-family:MyriadPro-Regular, Myriad Pro;}.cls-4{font-size:6.64px;}.cls-5{font-size:6.6px;}.cls-7{font-size:12px;}.cls-8{letter-spacing:-0.03em;}.cls-9{letter-spacing:0em;}.cls-10{letter-spacing:-0.01em;}.cls-11{letter-spacing:0em;}.cls-12{letter-spacing:0.02em;}</style></defs><line class="cls-1" x1="0.5" y1="598.47" x2="522.88" y2="598.47"/><line class="cls-1" x1="522.88" y1="352.85" x2="522.88" y2="598.47"/><line class="cls-1" x1="499.39" y1="352.85" x2="522.88" y2="352.85"/><line class="cls-1" x1="497.35" y1="175.66" x2="497.35" y2="352.85"/><line class="cls-1" x1="419.73" y1="178.21" x2="497.35" y2="178.21"/><line class="cls-1" x1="419.73" y1="495.83" x2="419.73" y2="178.21"/><line class="cls-1" x1="0.5" y1="495.83" x2="419.73" y2="495.83"/><line class="cls-1" x1="0.5" y1="598.47" x2="0.5" y2="495.83"/><line class="cls-1" x1="133.27" y1="315.57" x2="254.29" y2="315.57"/><line class="cls-1" x1="254.29" y1="60.77" x2="254.29" y2="315.57"/><line class="cls-1" x1="133.27" y1="315.57" x2="133.27" y2="281.36"/><line class="cls-1" x1="128.16" y1="60.77" x2="254.29" y2="60.77"/><line class="cls-1" x1="128.16" y1="281.36" x2="128.16" y2="60.77"/><line class="cls-1" x1="133.27" y1="281.36" x2="127.71" y2="281.36"/><line class="cls-1" x1="31.39" y1="553.15" x2="476.67" y2="553.15"/><line class="cls-1" x1="475.9" y1="331.4" x2="475.9" y2="553.15"/><line class="cls-1" x1="35.1" y1="495.83" x2="35.1" y2="553.15"/><line class="cls-1" x1="0.5" y1="519.19" x2="35.1" y2="519.19"/><line class="cls-1" x1="35.1" y1="541.21" x2="0.5" y2="541.21"/><line class="cls-1" x1="31.71" y1="553.15" x2="31.71" y2="598.47"/><line class="cls-1" x1="51.82" y1="598.47" x2="51.82" y2="553.15"/><line class="cls-1" x1="71.8" y1="553.15" x2="71.8" y2="598.47"/><line class="cls-1" x1="89.86" y1="598.47" x2="89.86" y2="553.15"/><line class="cls-1" x1="108.76" y1="553.15" x2="108.76" y2="598.47"/><line class="cls-1" x1="152.41" y1="553.15" x2="152.41" y2="598.47"/><line class="cls-1" x1="178.33" y1="598.47" x2="178.33" y2="553.15"/><line class="cls-1" x1="178.33" y1="563.23" x2="201.18" y2="563.23"/><line class="cls-1" x1="200.29" y1="598.47" x2="200.29" y2="563.23"/><line class="cls-1" x1="222.88" y1="563.23" x2="196.84" y2="563.23"/><line class="cls-1" x1="218.77" y1="563.23" x2="218.77" y2="598.47"/><line class="cls-1" x1="222.88" y1="552.73" x2="222.88" y2="563.23"/><line class="cls-1" x1="248.64" y1="552.73" x2="248.64" y2="598.47"/><line class="cls-1" x1="266.29" y1="553.15" x2="266.29" y2="598.47"/><line class="cls-1" x1="266.29" y1="563.23" x2="291.31" y2="563.23"/><line class="cls-1" x1="291.31" y1="553.15" x2="291.31" y2="563.23"/><line class="cls-1" x1="280.84" y1="563.23" x2="280.84" y2="598.47"/><line class="cls-1" x1="291.31" y1="563.23" x2="295.9" y2="563.23"/><line class="cls-1" x1="295.9" y1="598.47" x2="295.9" y2="563.23"/><line class="cls-1" x1="313.9" y1="553.15" x2="313.9" y2="598.47"/><line class="cls-1" x1="369.18" y1="553.15" x2="369.18" y2="598.47"/><line class="cls-1" x1="383.93" y1="598.47" x2="383.93" y2="553.15"/><line class="cls-1" x1="435.53" y1="553.15" x2="435.53" y2="598.47"/><line class="cls-1" x1="475.9" y1="553.15" x2="475.9" y2="598.47"/><line class="cls-1" x1="475.9" y1="541.53" x2="522.88" y2="541.53"/><line class="cls-1" x1="475.9" y1="525.96" x2="522.88" y2="525.96"/><line class="cls-1" x1="475.9" y1="478.47" x2="522.88" y2="478.47"/><line class="cls-1" x1="522.88" y1="419.23" x2="475.9" y2="419.23"/><line class="cls-1" x1="475.9" y1="375.32" x2="522.88" y2="375.32"/><line class="cls-1" x1="497.35" y1="352.85" x2="475.9" y2="352.85"/><line class="cls-1" x1="475.9" y1="331.4" x2="497.35" y2="331.4"/><line class="cls-1" x1="453.69" y1="331.4" x2="477.95" y2="331.4"/><line class="cls-1" x1="453.69" y1="276.26" x2="453.69" y2="331.4"/><line class="cls-1" x1="497.35" y1="276.26" x2="453.69" y2="276.26"/><line class="cls-1" x1="453.69" y1="278.52" x2="453.69" y2="260.43"/><line class="cls-1" x1="466.55" y1="266.84" x2="453.69" y2="266.84"/><line class="cls-1" x1="466.55" y1="254.78" x2="466.55" y2="266.84"/><line class="cls-1" x1="453.69" y1="254.78" x2="453.69" y2="263.2"/><line class="cls-1" x1="465.12" y1="254.78" x2="453.69" y2="254.78"/><line class="cls-1" x1="456.02" y1="254.78" x2="466.55" y2="254.78"/><line class="cls-1" x1="477.37" y1="254.78" x2="466.55" y2="254.78"/><line class="cls-1" x1="454.39" y1="254.78" x2="454.39" y2="239.84"/><line class="cls-1" x1="466.55" y1="239.84" x2="454.39" y2="239.84"/><line class="cls-1" x1="466.55" y1="254.78" x2="466.55" y2="239.84"/><line class="cls-1" x1="466.55" y1="237.45" x2="466.55" y2="239.84"/><line class="cls-1" x1="477.37" y1="237.45" x2="466.55" y2="237.45"/><line class="cls-1" x1="477.37" y1="254.39" x2="477.37" y2="237.45"/><line class="cls-1" x1="497.35" y1="254.78" x2="477.37" y2="254.78"/><line class="cls-1" x1="497.35" y1="237.45" x2="477.37" y2="237.45"/><line class="cls-1" x1="486.28" y1="236.39" x2="477.37" y2="228.06"/><line class="cls-1" x1="477.37" y1="220.98" x2="477.37" y2="228.06"/><line class="cls-1" x1="497.35" y1="220.98" x2="477.37" y2="220.98"/><line class="cls-1" x1="497.35" y1="207" x2="477.37" y2="207"/><line class="cls-1" x1="477.37" y1="178.21" x2="477.37" y2="220.98"/><line class="cls-1" x1="468.66" y1="237.45" x2="468.66" y2="225.57"/><line class="cls-1" x1="454.39" y1="225.96" x2="468.66" y2="225.96"/><line class="cls-1" x1="454.39" y1="178.21" x2="454.39" y2="225.96"/><line class="cls-1" x1="454.39" y1="191.87" x2="419.73" y2="191.87"/><line class="cls-1" x1="442.52" y1="191.87" x2="442.52" y2="392.62"/><line class="cls-1" x1="464.1" y1="392.3" x2="419.73" y2="392.3"/><line class="cls-1" x1="419.73" y1="206.62" x2="442.52" y2="206.62"/><line class="cls-1" x1="442.52" y1="221.27" x2="419.73" y2="221.27"/><line class="cls-1" x1="419.73" y1="236.25" x2="442.33" y2="236.25"/><line class="cls-1" x1="442.52" y1="250.76" x2="419.73" y2="250.76"/><line class="cls-1" x1="442.52" y1="287.94" x2="419.73" y2="287.94"/><line class="cls-1" x1="442.52" y1="302.74" x2="419.73" y2="302.74"/><line class="cls-1" x1="442.52" y1="317.43" x2="419.73" y2="317.43"/><line class="cls-1" x1="442.52" y1="339.51" x2="419.73" y2="339.51"/><line class="cls-1" x1="442.52" y1="361.47" x2="419.73" y2="361.47"/><line class="cls-1" x1="442.52" y1="376.53" x2="419.73" y2="376.53"/><line class="cls-1" x1="448.65" y1="392.62" x2="448.65" y2="419.81"/><line class="cls-1" x1="464.1" y1="392.3" x2="464.1" y2="531.19"/><line class="cls-1" x1="449.61" y1="530.62" x2="464.1" y2="530.62"/><line class="cls-1" x1="438.69" y1="515.49" x2="453.82" y2="515.49"/><line class="cls-1" x1="453.82" y1="530.62" x2="453.82" y2="515.49"/><line class="cls-1" x1="438.69" y1="530.62" x2="453.82" y2="530.62"/><line class="cls-1" x1="438.69" y1="515.49" x2="438.69" y2="530.62"/><line class="cls-1" x1="430.59" y1="531.19" x2="464.1" y2="531.19"/><line class="cls-1" x1="419.73" y1="406.21" x2="448.65" y2="406.21"/><line class="cls-1" x1="419.73" y1="432" x2="464.1" y2="432"/><line class="cls-1" x1="419.73" y1="478.47" x2="464.1" y2="478.47"/><line class="cls-1" x1="419.73" y1="495.83" x2="464.1" y2="495.83"/><line class="cls-1" x1="419.73" y1="540.26" x2="67.14" y2="540.26"/><line class="cls-1" x1="89.86" y1="495.83" x2="89.86" y2="540.26"/><line class="cls-1" x1="123.56" y1="495.83" x2="123.56" y2="540.26"/><line class="cls-1" x1="159.82" y1="495.83" x2="159.82" y2="540.26"/><line class="cls-1" x1="178.33" y1="495.83" x2="178.33" y2="541.21"/><line class="cls-1" x1="196.84" y1="495.83" x2="196.84" y2="540.26"/><line class="cls-1" x1="211.39" y1="495.83" x2="211.39" y2="530.04"/><line class="cls-1" x1="196.84" y1="530.04" x2="226.71" y2="530.04"/><line class="cls-1" x1="226.71" y1="495.83" x2="226.71" y2="530.04"/><line class="cls-1" x1="222.12" y1="540.26" x2="222.12" y2="530.04"/><line class="cls-1" x1="266.29" y1="540.26" x2="266.29" y2="495.83"/><line class="cls-1" x1="285.18" y1="495.83" x2="285.18" y2="540.26"/><line class="cls-1" x1="321.44" y1="495.83" x2="321.44" y2="540.26"/><line class="cls-1" x1="354.63" y1="495.83" x2="354.63" y2="540.26"/><line class="cls-1" x1="373.52" y1="540.26" x2="373.52" y2="495.83"/><line class="cls-1" x1="419.73" y1="495.83" x2="419.73" y2="540.26"/><line class="cls-1" x1="181.27" y1="60.77" x2="181.27" y2="315.57"/><line class="cls-1" x1="255.31" y1="260.94" x2="181.27" y2="260.94"/><line class="cls-1" x1="255.31" y1="208.09" x2="181.27" y2="208.09"/><line class="cls-1" x1="255.31" y1="152.68" x2="181.27" y2="152.68"/><line class="cls-1" x1="255.31" y1="99.06" x2="181.27" y2="99.06"/><line class="cls-1" x1="128.16" y1="114.77" x2="170.29" y2="114.77"/><line class="cls-1" x1="169.52" y1="74.04" x2="169.52" y2="114.77"/><line class="cls-1" x1="156.37" y1="114.77" x2="156.37" y2="74.04"/><line class="cls-1" x1="169.52" y1="96.26" x2="156.37" y2="96.26"/><line class="cls-1" x1="169.52" y1="81.32" x2="156.37" y2="81.32"/><line class="cls-1" x1="128.16" y1="149.74" x2="170.29" y2="149.74"/><line class="cls-1" x1="169.52" y1="315.57" x2="169.52" y2="114.77"/><line class="cls-1" x1="128.16" y1="264.93" x2="169.52" y2="264.93"/><line class="cls-1" x1="156.34" y1="264.93" x2="156.34" y2="301.31"/><line class="cls-1" x1="169.52" y1="301.31" x2="156.34" y2="301.31"/><line class="cls-1" x1="169.52" y1="285.22" x2="156.34" y2="285.22"/><line class="cls-1" x1="169.52" y1="244.15" x2="128.16" y2="244.15"/><line class="cls-1" x1="152.41" y1="264.93" x2="152.41" y2="244.15"/><line class="cls-1" x1="169.52" y1="231.13" x2="159.4" y2="231.13"/><line class="cls-1" x1="159.4" y1="244.15" x2="159.4" y2="231.13"/><line class="cls-1" x1="78.44" y1="512.04" x2="78.44" y2="531.13"/><line class="cls-1" x1="89.48" y1="512.04" x2="69.82" y2="512.04"/><line class="cls-1" x1="67.97" y1="522.83" x2="67.97" y2="540.26"/><line class="cls-1" x1="78.44" y1="514.91" x2="89.86" y2="514.91"/><line class="cls-1" x1="78.44" y1="518.04" x2="89.86" y2="518.04"/><line class="cls-1" x1="78.53" y1="521.59" x2="89.96" y2="521.59"/><line class="cls-1" x1="78.05" y1="525.1" x2="89.48" y2="525.1"/><line class="cls-1" x1="78.05" y1="528.48" x2="89.48" y2="528.48"/><line class="cls-1" x1="54.88" y1="522.83" x2="69.82" y2="522.83"/><line class="cls-1" x1="69.82" y1="507.45" x2="69.82" y2="522.83"/><line class="cls-1" x1="55.27" y1="507.45" x2="69.82" y2="507.45"/><line class="cls-1" x1="55.27" y1="522.83" x2="55.27" y2="507.45"/><text class="cls-2" transform="translate(56.71 517.68)">LIFT</text><line class="cls-3" x1="69.82" y1="513.67" x2="78.44" y2="513.67"/><line class="cls-3" x1="70.07" y1="517.28" x2="78.69" y2="517.28"/><line class="cls-3" x1="70.3" y1="520.85" x2="78.91" y2="520.85"/><line class="cls-3" x1="67.87" y1="524.17" x2="78.44" y2="524.17"/><line class="cls-3" x1="67.97" y1="527.71" x2="78.53" y2="527.71"/><line class="cls-3" x1="68.35" y1="531.13" x2="78.91" y2="531.13"/><line class="cls-1" x1="438.69" y1="530.62" x2="438.69" y2="515.49"/><line class="cls-1" x1="453.82" y1="515.49" x2="438.69" y2="515.49"/><line class="cls-1" x1="453.82" y1="530.62" x2="453.82" y2="515.49"/><text class="cls-4" transform="translate(440.8 524.84)">LIFT</text><line class="cls-1" x1="185.54" y1="77.65" x2="200.48" y2="77.65"/><line class="cls-1" x1="200.48" y1="63.19" x2="200.48" y2="77.65"/><line class="cls-1" x1="185.54" y1="63.19" x2="185.54" y2="77.65"/><line class="cls-1" x1="200.48" y1="63.19" x2="185.54" y2="63.19"/><text class="cls-5" transform="translate(187.36 72.84)">LIFT</text><line class="cls-6" x1="145.65" y1="281.04" x2="145.65" y2="301.31"/><line class="cls-6" x1="135.37" y1="281.04" x2="135.37" y2="301.31"/><line class="cls-1" x1="145.65" y1="301.31" x2="135.37" y2="301.31"/><line class="cls-1" x1="135.37" y1="280.66" x2="135.37" y2="301.31"/><line class="cls-1" x1="145.65" y1="280.66" x2="145.65" y2="301.31"/><line class="cls-1" x1="135.37" y1="280.66" x2="156.34" y2="280.66"/><line class="cls-1" x1="145.86" y1="299.04" x2="156.34" y2="299.04"/><line class="cls-1" x1="145.86" y1="296.36" x2="156.34" y2="296.36"/><line class="cls-1" x1="145.86" y1="293.43" x2="155.99" y2="293.43"/><line class="cls-1" x1="145.86" y1="290.98" x2="156.34" y2="290.98"/><line class="cls-1" x1="145.86" y1="288.13" x2="156.34" y2="288.13"/><line class="cls-1" x1="146.1" y1="285.22" x2="156.34" y2="285.22"/><line class="cls-1" x1="146.1" y1="282.64" x2="155.99" y2="282.64"/><line class="cls-1" x1="145.01" y1="299.04" x2="135.37" y2="299.04"/><line class="cls-1" x1="145.27" y1="296.36" x2="135.37" y2="296.36"/><line class="cls-1" x1="145.86" y1="293.43" x2="135.37" y2="293.43"/><line class="cls-1" x1="145.86" y1="290.98" x2="135.37" y2="290.98"/><line class="cls-1" x1="145.86" y1="288.13" x2="135.37" y2="288.13"/><line class="cls-1" x1="145.65" y1="285.22" x2="135.37" y2="285.22"/><line class="cls-1" x1="145.65" y1="282.64" x2="135.37" y2="282.64"/><line class="cls-1" x1="145.59" y1="78.19" x2="145.59" y2="99.06"/><line class="cls-1" x1="135.12" y1="98.81" x2="156.37" y2="98.81"/><line class="cls-1" x1="135.12" y1="78.19" x2="135.12" y2="98.81"/><line class="cls-1" x1="145.59" y1="78.19" x2="135.12" y2="78.19"/><line class="cls-1" x1="145.59" y1="80.11" x2="156.69" y2="80.11"/><line class="cls-1" x1="156.37" y1="82.15" x2="146.1" y2="82.15"/><line class="cls-1" x1="146.1" y1="82.15" x2="135.82" y2="82.15"/><line class="cls-1" x1="135.12" y1="80.11" x2="155.93" y2="80.11"/><line class="cls-1" x1="135.12" y1="84.32" x2="156.37" y2="84.32"/><line class="cls-1" x1="156.37" y1="87.06" x2="135.12" y2="87.06"/><line class="cls-1" x1="135.12" y1="89.11" x2="156.37" y2="89.11"/><line class="cls-1" x1="156.37" y1="91.91" x2="135.12" y2="91.91"/><line class="cls-1" x1="135.12" y1="94.15" x2="156.37" y2="94.15"/><line class="cls-1" x1="155.93" y1="96.26" x2="135.5" y2="96.26"/><line class="cls-1" x1="426.82" y1="266.17" x2="426.82" y2="286.6"/><line class="cls-1" x1="408.5" y1="276.26" x2="426.82" y2="276.26"/><line class="cls-1" x1="426.82" y1="286.21" x2="408.5" y2="286.21"/><line class="cls-1" x1="409.01" y1="266.17" x2="409.01" y2="286.21"/><line class="cls-1" x1="399.24" y1="286.21" x2="410.54" y2="286.21"/><line class="cls-1" x1="399.24" y1="265.79" x2="399.24" y2="286.21"/><line class="cls-1" x1="409.01" y1="266.17" x2="399.24" y2="266.17"/><line class="cls-1" x1="410.54" y1="266.17" x2="410.54" y2="285.89"/><line class="cls-1" x1="413.03" y1="285.89" x2="413.03" y2="266.17"/><line class="cls-1" x1="415.27" y1="266.17" x2="415.27" y2="286.21"/><line class="cls-1" x1="417.66" y1="286.21" x2="417.66" y2="266.17"/><line class="cls-1" x1="422.29" y1="266.17" x2="422.29" y2="286.21"/><line class="cls-1" x1="424.97" y1="286.21" x2="424.97" y2="266.17"/><line class="cls-1" x1="405.37" y1="266.17" x2="426.82" y2="266.17"/><line class="cls-1" x1="452.93" y1="505.53" x2="435.44" y2="505.53"/><line class="cls-1" x1="435.44" y1="495.83" x2="435.44" y2="515.49"/><line class="cls-1" x1="439.65" y1="515.49" x2="434.99" y2="515.49"/><line class="cls-1" x1="452.93" y1="515.49" x2="452.93" y2="495.83"/><line class="cls-1" x1="450.69" y1="515.49" x2="450.69" y2="495.83"/><line class="cls-1" x1="448.33" y1="495.57" x2="448.33" y2="515.49"/><line class="cls-1" x1="446.26" y1="515.49" x2="446.26" y2="495.83"/><line class="cls-1" x1="444.09" y1="495.93" x2="444.09" y2="515.84"/><line class="cls-1" x1="441.91" y1="515.49" x2="441.91" y2="495.83"/><line class="cls-1" x1="439.65" y1="495.83" x2="439.65" y2="515.49"/><line class="cls-1" x1="437.32" y1="515.49" x2="437.32" y2="495.83"/><line class="cls-1" x1="0.5" y1="630.64" x2="569.8" y2="630.64"/><line class="cls-1" x1="555.05" y1="598.47" x2="555.05"/><line class="cls-1" x1="522.88" y1="598.47" x2="522.88"/><text class="cls-7" transform="translate(222.88 618.38)"><tspan class="cls-8">O</tspan><tspan x="7.94" y="0">XFORD </tspan><tspan class="cls-9" x="45.9" y="0">R</tspan><tspan class="cls-10" x="52.39" y="0">O</tspan><tspan class="cls-11" x="60.49" y="0">AD</tspan></text><text class="cls-7" transform="translate(541.43 387.62) rotate(-90)">CHESTER STRE<tspan class="cls-12" x="71.71" y="0">E</tspan><tspan class="cls-11" x="77.81" y="0">T</tspan></text></svg>